<svg id="svg" version="1.1" xmlns="http://www.w3.org/2000/svg" xmlns:xlink="http://www.w3.org/1999/xlink" width="400" height="400" viewBox="0, 0, 400,400"><g id="svgg"><path id="path0" d="M338.380 4.921 C 335.350 5.778,334.192 6.757,323.526 17.482 C 311.363 29.711,310.410 31.269,311.595 36.978 C 313.029 43.882,320.671 47.506,327.387 44.467 C 329.918 43.322,350.243 23.136,351.419 20.600 C 355.538 11.720,347.694 2.288,338.380 4.921 M263.104 12.623 C 257.406 14.004,253.863 16.720,248.173 24.068 C 214.239 67.895,181.396 94.547,138.200 113.314 C 121.472 120.582,121.004 120.808,118.773 122.706 C 111.011 129.307,108.885 138.802,112.599 150.284 L 112.885 151.167 68.342 151.284 L 23.800 151.400 20.687 152.462 C 13.331 154.970,8.381 159.860,5.658 167.307 L 4.600 170.200 4.600 273.200 L 4.600 376.200 5.701 379.311 C 8.484 387.175,13.719 392.289,21.421 394.666 C 23.714 395.373,30.192 395.400,199.800 395.400 L 375.800 395.400 378.600 394.465 C 385.757 392.075,390.783 387.039,393.542 379.493 L 394.600 376.600 394.600 273.800 C 394.600 162.069,394.749 169.445,392.385 164.231 C 389.651 158.201,386.020 154.909,379.600 152.639 L 376.200 151.437 358.900 151.277 L 341.600 151.117 341.592 146.258 C 341.570 132.771,336.425 108.127,330.181 91.600 C 329.890 90.830,328.905 88.130,327.990 85.600 C 324.779 76.710,320.164 66.706,314.799 57.000 C 296.687 24.236,278.744 8.833,263.104 12.623 M271.851 32.027 C 294.510 43.946,325.941 113.721,324.273 148.400 C 323.733 159.635,322.694 160.445,310.649 159.019 C 273.917 154.672,241.150 155.274,213.000 160.816 C 203.821 162.623,204.142 162.756,201.298 155.936 C 192.380 134.546,183.600 112.648,183.600 111.796 C 183.600 110.040,184.223 109.378,188.898 106.169 C 213.939 88.979,242.811 61.178,263.314 34.514 C 266.534 30.325,267.874 29.935,271.851 32.027 M377.906 45.633 C 377.084 45.827,372.494 47.709,367.706 49.817 C 362.918 51.924,353.985 55.843,347.855 58.524 C 336.242 63.605,334.210 64.825,332.835 67.543 C 328.408 76.298,335.075 85.395,344.626 83.629 C 348.063 82.994,386.211 66.160,388.129 64.432 C 392.932 60.106,392.611 50.873,387.536 47.356 C 384.871 45.509,381.209 44.854,377.906 45.633 M352.267 106.563 C 343.524 108.959,342.486 122.637,350.740 126.690 L 353.000 127.800 369.565 127.917 C 388.077 128.048,388.910 127.952,391.938 125.360 C 397.492 120.606,396.286 109.737,389.895 106.941 C 387.670 105.968,355.615 105.646,352.267 106.563 M169.782 120.248 C 170.896 120.676,188.400 161.831,188.400 164.023 C 188.400 165.596,188.131 165.731,178.554 168.962 C 169.205 172.117,165.187 173.658,156.000 177.618 C 149.038 180.618,147.441 180.825,145.582 178.967 C 143.905 177.290,129.943 143.096,129.857 140.456 C 129.775 137.936,130.849 137.231,141.487 132.826 C 146.499 130.750,154.630 127.015,159.556 124.526 C 168.962 119.772,168.761 119.857,169.782 120.248 M124.681 170.202 C 125.227 170.584,126.375 172.952,127.831 176.702 C 132.496 188.712,136.258 192.760,144.295 194.416 C 148.484 195.280,147.507 193.814,162.188 221.270 C 180.702 255.894,179.456 253.891,183.813 256.036 C 187.086 257.648,190.492 257.979,193.824 257.010 C 196.517 256.227,229.880 242.340,231.523 241.318 C 241.946 234.836,243.805 220.846,235.413 212.048 C 231.137 207.564,226.967 206.145,219.343 206.580 L 214.484 206.857 213.500 205.528 C 211.862 203.315,200.400 180.539,200.400 179.496 C 200.400 177.894,201.747 177.142,206.756 175.947 C 233.730 169.511,271.150 168.241,310.000 172.443 C 320.972 173.629,323.875 173.442,328.040 171.276 L 331.265 169.600 345.059 169.600 C 358.678 169.600,360.400 169.750,360.400 170.936 C 360.400 172.119,360.446 172.084,330.600 193.064 C 309.190 208.113,285.703 224.636,241.200 255.958 C 207.438 279.719,207.395 279.747,203.126 280.653 C 195.994 282.165,193.101 281.045,179.476 271.499 C 125.075 233.386,40.340 173.641,39.300 172.664 C 37.897 171.346,37.733 170.827,38.480 170.080 C 39.283 169.277,123.531 169.396,124.681 170.202 M37.987 188.297 C 53.256 199.097,93.763 227.755,117.000 244.198 C 187.912 294.375,184.107 291.769,189.054 293.564 C 200.187 297.604,208.466 295.816,221.800 286.492 C 224.880 284.338,254.130 263.855,286.800 240.974 C 385.414 171.908,375.296 178.797,376.659 179.793 C 377.377 180.319,377.400 183.330,377.400 276.468 L 377.400 372.600 376.578 373.999 C 375.364 376.065,373.566 377.100,370.686 377.389 C 369.319 377.526,291.520 377.584,197.800 377.519 L 27.400 377.400 25.888 376.460 C 25.056 375.943,23.976 374.773,23.488 373.860 L 22.600 372.200 22.600 276.362 C 22.600 172.070,22.450 178.825,24.758 179.404 C 25.317 179.544,31.270 183.546,37.987 188.297 M185.927 183.434 C 186.478 183.820,189.956 190.314,194.828 200.056 C 205.770 221.935,208.340 224.207,219.510 221.877 C 226.364 220.447,230.349 226.861,224.746 230.305 C 222.791 231.507,193.638 243.640,192.102 243.892 C 190.073 244.224,189.694 243.615,175.960 218.007 C 161.492 191.029,161.974 192.350,165.800 190.132 C 173.801 185.493,184.014 182.094,185.927 183.434 " stroke="none" fill="#2e3d64" fill-rule="evenodd"></path><path id="path1" d="M266.282 33.713 C 265.797 34.216,263.159 37.390,260.421 40.767 C 238.575 67.710,213.070 91.815,189.343 107.943 C 184.687 111.108,184.724 110.894,187.581 117.979 C 197.162 141.743,204.133 158.169,205.116 159.300 C 205.912 160.216,206.564 160.189,212.445 158.990 C 239.179 153.544,273.928 152.777,308.600 156.870 C 320.643 158.291,320.674 158.283,321.835 153.350 C 325.218 138.969,315.945 102.277,301.768 73.943 C 288.785 47.997,271.457 28.353,266.282 33.713 M178.800 186.628 C 173.322 188.649,165.827 192.455,165.672 193.294 C 165.601 193.676,169.236 200.876,173.748 209.294 C 190.191 239.969,190.991 241.393,191.844 241.518 C 192.516 241.616,201.293 238.077,220.590 229.927 C 224.088 228.450,225.118 227.323,224.657 225.484 C 224.197 223.652,223.134 223.412,218.959 224.197 C 214.512 225.034,211.716 224.691,207.710 222.817 C 202.898 220.565,202.065 219.348,193.043 201.400 C 183.727 182.869,185.109 184.301,178.800 186.628 " stroke="none" fill="#f6f6f6" fill-rule="evenodd"></path><path id="path2" d="M46.090 173.269 C 46.176 173.527,49.566 176.075,53.623 178.930 C 57.680 181.786,66.670 188.109,73.600 192.983 C 80.530 197.857,92.005 205.929,99.100 210.922 C 106.195 215.915,117.805 224.084,124.900 229.075 C 131.995 234.067,142.660 241.570,148.600 245.749 C 164.366 256.843,177.282 265.914,184.917 271.256 C 197.145 279.811,201.202 279.995,211.915 272.486 C 217.982 268.233,221.077 266.057,282.000 223.199 C 350.302 175.150,352.145 173.840,352.069 173.400 C 352.026 173.150,348.341 172.960,342.212 172.893 L 332.422 172.786 329.211 174.467 C 325.229 176.552,320.657 176.901,310.945 175.861 C 291.620 173.791,284.834 173.425,265.800 173.427 C 248.637 173.428,246.347 173.529,233.800 174.837 C 225.437 175.708,214.705 177.486,205.667 179.498 C 205.154 179.612,204.642 179.947,204.528 180.243 C 204.368 180.661,215.109 202.417,215.855 203.183 C 215.953 203.284,218.182 203.315,220.808 203.252 C 239.229 202.811,249.963 221.059,240.640 236.967 C 237.302 242.663,231.476 245.684,197.600 259.288 C 189.195 262.664,180.463 260.256,175.884 253.300 C 174.906 251.815,170.264 243.400,165.568 234.600 C 160.872 225.800,154.569 214.017,151.561 208.416 L 146.092 198.232 143.146 197.514 C 134.303 195.360,129.918 191.018,125.750 180.288 C 124.535 177.160,123.280 174.195,122.961 173.700 L 122.382 172.800 84.157 172.800 C 55.088 172.800,45.971 172.912,46.090 173.269 M26.000 269.200 L 26.000 354.000 36.300 354.004 C 41.965 354.007,47.320 354.114,48.200 354.242 L 49.800 354.475 48.476 353.629 C 46.265 352.216,46.069 351.180,46.352 342.400 C 46.713 331.189,42.935 332.400,77.545 332.400 L 105.115 332.400 106.322 333.527 C 109.401 336.403,108.607 352.381,105.324 353.629 C 103.727 354.236,103.048 354.228,131.200 353.948 C 161.419 353.649,165.502 353.392,181.900 350.768 C 185.414 350.205,192.270 348.841,193.800 348.400 C 194.917 348.078,195.831 347.842,200.000 346.800 C 203.980 345.805,205.046 345.498,205.695 345.161 C 206.077 344.962,206.716 344.800,207.115 344.800 C 207.514 344.800,208.011 344.651,208.220 344.470 C 208.583 344.154,209.597 343.838,213.600 342.794 C 214.590 342.536,215.940 342.083,216.600 341.789 C 217.260 341.495,218.700 340.959,219.800 340.598 C 222.043 339.862,223.482 339.262,227.066 337.567 C 228.422 336.925,229.697 336.400,229.899 336.400 C 230.101 336.400,233.852 334.568,238.233 332.330 C 242.615 330.091,247.460 327.616,249.000 326.830 C 250.540 326.043,252.033 325.179,252.319 324.910 C 252.604 324.640,253.504 324.106,254.319 323.723 C 255.133 323.340,256.149 322.705,256.575 322.313 C 257.002 321.921,257.572 321.600,257.842 321.600 C 258.112 321.600,258.393 321.450,258.467 321.268 C 258.540 321.085,260.310 319.798,262.400 318.408 C 268.611 314.277,279.322 306.112,283.184 302.564 C 284.403 301.445,286.030 300.009,286.800 299.374 C 290.094 296.659,302.940 283.322,304.691 280.800 C 305.073 280.250,305.889 279.272,306.506 278.627 C 307.122 277.982,308.025 276.931,308.513 276.292 C 309.001 275.654,309.586 274.921,309.813 274.665 C 310.040 274.409,310.662 273.570,311.194 272.800 C 311.727 272.030,312.486 271.109,312.881 270.753 C 313.276 270.397,313.600 269.947,313.600 269.753 C 313.601 269.559,314.066 268.860,314.635 268.200 C 315.204 267.540,315.963 266.505,316.321 265.900 C 316.679 265.295,317.114 264.800,317.286 264.800 C 317.459 264.800,317.600 264.564,317.600 264.275 C 317.600 263.987,317.921 263.402,318.313 262.975 C 318.705 262.549,320.143 260.490,321.508 258.400 C 322.873 256.310,324.127 254.411,324.295 254.180 C 324.740 253.566,325.366 252.445,327.395 248.630 C 328.392 246.756,329.710 244.363,330.324 243.311 C 331.978 240.481,335.898 232.347,336.213 231.091 C 336.363 230.491,336.647 230.000,336.843 230.000 C 337.040 230.000,337.200 229.676,337.200 229.280 C 337.200 228.884,337.361 228.389,337.557 228.180 C 337.754 227.971,338.753 225.640,339.778 223.000 C 340.802 220.360,341.877 217.659,342.167 216.998 C 342.456 216.338,342.818 215.168,342.970 214.398 C 343.122 213.629,343.394 212.640,343.575 212.200 C 343.755 211.760,344.304 209.960,344.794 208.200 C 345.283 206.440,345.865 204.655,346.086 204.234 C 346.791 202.893,350.702 200.184,245.228 274.123 C 217.198 293.772,216.677 294.125,213.450 295.635 C 205.826 299.203,197.249 299.731,189.200 297.128 C 183.408 295.255,183.483 295.305,138.600 263.530 C 134.420 260.570,124.160 253.315,115.800 247.406 C 107.440 241.498,93.220 231.440,84.200 225.056 C 54.983 204.377,44.752 197.147,36.400 191.276 C 31.890 188.106,27.916 185.262,27.569 184.956 C 27.221 184.650,26.726 184.400,26.469 184.400 C 26.112 184.400,26.000 204.667,26.000 269.200 M105.534 302.166 C 107.567 303.217,107.800 304.246,107.800 312.161 C 107.800 320.498,107.643 321.342,105.889 322.411 C 104.445 323.292,50.894 323.672,48.647 322.818 C 46.408 321.967,46.188 320.985,46.322 312.417 C 46.455 303.965,46.631 303.240,48.839 302.106 C 50.352 301.328,104.024 301.385,105.534 302.166 " stroke="none" fill="#f3c464" fill-rule="evenodd"></path><path id="path3" d="M159.531 125.644 C 154.619 128.089,146.550 131.792,141.600 133.875 C 132.070 137.884,130.800 138.659,130.800 140.461 C 130.800 141.423,143.399 173.305,145.012 176.423 C 146.844 179.966,147.783 179.911,157.812 175.671 C 166.888 171.835,171.149 170.223,180.185 167.209 C 186.393 165.138,187.011 164.848,187.118 163.952 C 187.293 162.504,170.517 122.216,169.444 121.506 C 168.746 121.044,168.926 120.969,159.531 125.644 M49.054 304.029 L 48.000 304.858 48.000 312.367 C 48.000 322.651,43.974 321.400,77.077 321.400 L 104.471 321.400 105.235 320.456 C 106.560 318.819,106.383 305.547,105.018 304.182 L 104.036 303.200 77.072 303.200 C 50.399 303.200,50.097 303.209,49.054 304.029 M49.054 334.829 L 48.000 335.658 48.000 343.167 C 48.000 353.451,43.974 352.200,77.077 352.200 L 104.471 352.200 105.235 351.256 C 106.560 349.619,106.383 336.347,105.018 334.982 L 104.036 334.000 77.072 334.000 C 50.399 334.000,50.097 334.009,49.054 334.829 " stroke="none" fill="#f55971" fill-rule="evenodd"></path><path id="path4" d="M42.134 171.827 C 41.815 172.658,36.687 168.953,91.400 207.425 C 118.240 226.298,150.730 249.144,163.600 258.194 C 176.470 267.244,187.990 275.317,189.200 276.134 C 194.623 279.797,202.185 280.201,207.694 277.122 C 208.633 276.597,232.531 259.895,260.801 240.006 C 366.888 165.370,356.770 172.610,356.026 171.865 C 355.700 171.539,352.086 171.363,343.911 171.277 L 332.261 171.154 329.121 172.793 C 324.768 175.064,321.285 175.480,313.734 174.629 C 274.295 170.183,241.063 170.842,212.041 176.647 C 204.356 178.184,202.400 178.828,202.400 179.822 C 202.400 180.767,214.233 203.725,215.146 204.551 C 215.829 205.169,216.235 205.189,219.252 204.757 C 236.648 202.261,248.756 221.875,238.945 236.657 C 235.647 241.625,234.610 242.200,211.768 251.735 C 191.392 260.240,189.512 260.650,183.498 257.896 C 178.459 255.589,179.058 256.518,162.005 224.600 C 145.998 194.640,147.572 197.067,143.472 196.018 C 134.836 193.810,131.146 189.988,126.751 178.704 C 125.442 175.342,124.001 172.286,123.543 171.900 C 122.329 170.878,42.526 170.806,42.134 171.827 M123.111 172.900 C 123.336 173.175,124.455 175.830,125.597 178.800 C 130.088 190.478,135.038 195.547,143.592 197.230 C 146.569 197.816,146.136 197.247,152.087 208.400 C 179.501 259.781,177.291 256.187,183.163 258.935 C 189.994 262.131,190.926 261.872,225.600 247.110 C 237.113 242.209,240.717 238.744,242.809 230.566 C 246.601 215.737,235.910 202.966,220.318 203.701 C 215.075 203.947,216.303 205.303,209.220 191.455 C 202.587 178.486,202.570 179.709,209.400 178.264 C 228.241 174.279,241.785 173.027,266.000 173.034 C 285.202 173.040,291.547 173.381,310.945 175.451 C 320.637 176.485,324.763 176.172,328.872 174.088 L 332.229 172.386 342.614 172.493 C 351.513 172.585,353.000 172.686,353.000 173.198 C 353.000 173.726,343.933 180.214,304.800 207.687 C 299.410 211.471,286.540 220.525,276.200 227.806 C 221.770 266.132,208.498 275.425,206.960 276.285 C 203.029 278.482,197.270 278.755,192.936 276.949 C 191.006 276.146,190.746 275.965,144.200 243.201 C 138.480 239.174,128.760 232.336,122.600 228.004 C 116.440 223.673,106.810 216.899,101.200 212.951 C 95.590 209.004,81.550 199.137,70.000 191.025 C 45.772 174.009,44.800 173.306,44.800 172.787 C 44.800 172.156,122.594 172.268,123.111 172.900 M24.496 276.900 C 24.600 371.747,24.600 371.801,25.420 373.200 C 26.900 375.728,14.074 375.555,200.000 375.555 C 383.612 375.555,372.922 375.682,374.563 373.471 L 375.400 372.341 375.503 277.622 C 375.590 197.860,375.520 182.832,375.059 182.449 C 374.627 182.091,372.495 183.404,364.956 188.672 C 359.700 192.344,352.700 197.172,349.400 199.400 C 346.100 201.628,316.580 222.244,283.800 245.213 C 214.103 294.051,216.435 292.444,212.702 294.214 C 203.590 298.536,192.511 298.120,183.600 293.121 C 182.390 292.442,172.220 285.395,161.000 277.460 C 149.780 269.525,138.530 261.573,136.000 259.789 C 133.470 258.005,107.690 239.772,78.710 219.272 C 49.731 198.773,25.654 182.000,25.206 182.000 L 24.392 182.000 24.496 276.900 M55.082 203.918 C 194.542 302.588,183.874 295.257,190.889 297.245 C 195.171 298.458,203.152 298.575,207.200 297.484 C 213.924 295.672,211.088 297.528,266.600 258.612 C 353.296 197.835,347.782 201.622,348.518 202.358 C 348.856 202.696,346.793 210.045,344.588 216.358 C 342.253 223.040,336.327 236.777,333.699 241.600 C 330.356 247.733,326.548 254.367,325.129 256.528 C 324.288 257.809,323.600 258.954,323.600 259.073 C 323.600 259.192,322.405 261.024,320.945 263.145 C 282.843 318.464,225.591 351.228,159.400 355.592 C 146.540 356.440,26.487 356.111,26.014 355.226 C 25.464 354.198,25.432 183.600,25.982 183.600 C 26.193 183.600,39.288 192.743,55.082 203.918 M48.839 302.106 C 46.631 303.240,46.455 303.965,46.322 312.417 C 46.188 320.985,46.408 321.967,48.647 322.818 C 50.894 323.672,104.445 323.292,105.889 322.411 C 107.643 321.342,107.800 320.498,107.800 312.161 C 107.800 304.246,107.567 303.217,105.534 302.166 C 104.024 301.385,50.352 301.328,48.839 302.106 M105.018 304.182 C 106.383 305.547,106.560 318.819,105.235 320.456 L 104.471 321.400 77.077 321.400 C 43.974 321.400,48.000 322.651,48.000 312.367 L 48.000 304.858 49.054 304.029 C 50.097 303.209,50.399 303.200,77.072 303.200 L 104.036 303.200 105.018 304.182 M48.548 332.976 C 46.669 333.794,46.623 333.993,46.352 342.400 C 45.926 355.645,42.754 354.397,76.839 354.399 C 110.666 354.400,107.704 355.324,107.942 344.697 C 108.124 336.621,107.887 334.989,106.322 333.527 L 105.115 332.400 77.458 332.416 C 55.023 332.428,49.564 332.534,48.548 332.976 M105.018 334.982 C 106.383 336.347,106.560 349.619,105.235 351.256 L 104.471 352.200 77.077 352.200 C 43.974 352.200,48.000 353.451,48.000 343.167 L 48.000 335.658 49.054 334.829 C 50.097 334.009,50.399 334.000,77.072 334.000 L 104.036 334.000 105.018 334.982 " stroke="none" fill="#ebbb5c" fill-rule="evenodd"></path><path id="path5" d="M159.556 124.526 C 154.630 127.015,146.499 130.750,141.487 132.826 C 130.849 137.231,129.775 137.936,129.857 140.456 C 129.943 143.096,143.905 177.290,145.582 178.967 C 147.441 180.825,149.038 180.618,156.000 177.618 C 165.187 173.658,169.205 172.117,178.554 168.962 C 188.131 165.731,188.400 165.596,188.400 164.023 C 188.400 161.831,170.896 120.676,169.782 120.248 C 168.761 119.857,168.962 119.772,159.556 124.526 M169.444 121.506 C 170.517 122.216,187.293 162.504,187.118 163.952 C 187.011 164.848,186.393 165.138,180.185 167.209 C 171.149 170.223,166.888 171.835,157.812 175.671 C 147.783 179.911,146.844 179.966,145.012 176.423 C 143.399 173.305,130.800 141.423,130.800 140.461 C 130.800 138.659,132.070 137.884,141.600 133.875 C 146.550 131.792,154.619 128.089,159.531 125.644 C 168.926 120.969,168.746 121.044,169.444 121.506 M38.700 170.032 C 36.914 171.072,37.513 171.609,51.000 181.081 C 71.513 195.487,167.433 262.955,178.129 270.500 C 193.894 281.622,197.824 282.895,206.365 279.650 C 208.857 278.703,190.564 291.471,337.000 188.475 C 357.545 174.025,359.920 172.273,360.298 171.288 C 360.891 169.743,359.615 169.600,345.186 169.600 L 331.326 169.600 329.563 170.600 C 325.892 172.683,325.039 172.939,321.196 173.113 C 319.104 173.208,314.694 172.996,311.396 172.642 C 270.326 168.239,232.985 169.504,205.851 176.218 C 198.833 177.954,198.788 177.278,206.992 193.220 C 214.551 207.909,213.589 206.891,219.587 206.552 C 235.607 205.647,245.513 219.650,238.722 233.600 C 235.757 239.691,234.650 240.355,211.161 250.152 C 190.881 258.610,189.466 258.922,183.860 256.177 C 179.834 254.205,179.241 253.265,163.800 224.368 C 147.555 193.966,148.455 195.362,144.597 194.566 C 136.269 192.848,132.540 188.954,127.968 177.203 C 126.662 173.846,125.451 171.390,124.765 170.703 L 123.662 169.600 81.531 169.612 C 53.659 169.620,39.163 169.762,38.700 170.032 M124.347 171.236 C 124.776 171.695,126.234 174.890,127.588 178.336 C 131.840 189.154,135.590 193.137,143.306 195.032 C 146.816 195.894,147.748 196.305,148.339 197.251 C 148.808 198.002,156.526 212.384,168.704 235.200 C 176.992 250.730,177.782 252.089,179.600 253.977 C 184.138 258.687,190.405 259.575,197.800 256.556 C 233.510 241.975,235.840 240.735,239.095 234.563 C 246.765 220.018,236.451 204.799,219.570 205.753 C 215.440 205.986,214.870 205.938,214.319 205.307 C 212.843 203.619,201.149 179.992,201.399 179.204 C 201.923 177.551,208.049 176.065,225.200 173.432 C 247.567 169.997,277.031 169.937,309.400 173.258 C 320.995 174.448,324.248 174.247,328.374 172.087 L 331.596 170.400 344.498 170.406 C 362.924 170.415,363.305 169.044,340.404 185.142 C 322.522 197.712,317.475 201.261,309.855 206.626 C 303.781 210.901,296.566 215.975,275.000 231.135 C 271.700 233.455,266.930 236.817,264.400 238.606 C 261.870 240.394,257.123 243.735,253.852 246.029 C 243.067 253.591,228.184 264.076,217.880 271.371 C 200.688 283.542,198.014 283.519,180.274 271.056 C 175.063 267.395,166.525 261.392,161.300 257.716 C 156.075 254.039,148.830 248.945,145.200 246.395 C 141.570 243.845,136.080 239.981,133.000 237.809 C 126.529 233.246,117.020 226.562,103.400 217.006 C 98.120 213.301,91.640 208.735,89.000 206.859 C 86.360 204.984,80.060 200.545,75.000 196.995 C 35.896 169.561,38.798 171.736,39.867 170.667 C 40.013 170.520,58.906 170.400,81.851 170.400 L 123.569 170.400 124.347 171.236 M22.887 180.300 C 22.729 180.685,22.600 223.930,22.600 276.400 L 22.600 371.800 23.528 373.685 C 24.097 374.840,25.027 375.924,25.928 376.485 L 27.400 377.400 198.395 377.503 C 312.334 377.571,370.125 377.471,371.595 377.201 C 374.282 376.709,375.550 375.840,376.600 373.774 C 377.455 372.092,378.113 184.270,377.276 181.075 C 376.446 177.910,382.982 173.480,226.800 283.072 C 209.803 294.999,204.113 297.071,193.986 295.022 C 186.287 293.465,188.586 294.917,144.800 263.943 C 125.990 250.637,103.760 234.914,95.400 229.003 C 87.040 223.092,68.590 210.042,54.400 200.004 C 40.210 189.966,27.883 181.268,27.007 180.676 C 25.165 179.431,23.314 179.262,22.887 180.300 M29.748 183.527 C 37.594 189.038,45.871 194.890,80.400 219.339 C 87.550 224.401,94.750 229.491,96.400 230.649 C 98.050 231.808,102.190 234.733,105.600 237.151 C 109.010 239.569,114.320 243.328,117.400 245.504 C 120.480 247.680,125.250 251.054,128.000 253.001 C 130.750 254.949,134.440 257.557,136.200 258.797 C 137.960 260.038,141.650 262.646,144.400 264.593 C 147.150 266.540,150.951 269.228,152.846 270.567 C 154.742 271.905,161.898 276.960,168.748 281.800 C 185.256 293.463,187.644 294.758,194.980 296.029 C 204.143 297.616,210.779 295.290,224.310 285.749 C 227.990 283.155,232.710 279.844,234.800 278.391 C 238.463 275.846,267.494 255.503,317.000 220.792 C 329.980 211.691,343.390 202.339,346.800 200.009 C 350.210 197.679,357.546 192.573,363.102 188.662 C 374.549 180.603,375.134 180.247,375.879 180.866 C 376.878 181.695,376.619 372.237,375.616 373.881 C 375.187 374.585,374.295 375.441,373.635 375.782 C 372.554 376.341,355.154 376.393,199.649 376.301 L 26.864 376.200 25.794 375.200 C 23.184 372.761,23.400 381.633,23.400 276.800 C 23.400 224.550,23.529 181.485,23.687 181.100 C 24.177 179.907,25.147 180.295,29.748 183.527 " stroke="none" fill="#b98569" fill-rule="evenodd"></path><path id="path6" d="M266.102 31.414 C 265.620 31.751,264.365 33.146,263.314 34.514 C 242.811 61.178,213.939 88.979,188.898 106.169 C 184.223 109.378,183.600 110.040,183.600 111.796 C 183.600 112.648,192.380 134.546,201.298 155.936 C 204.142 162.756,203.821 162.623,213.000 160.816 C 241.150 155.274,273.917 154.672,310.649 159.019 C 319.795 160.102,320.473 160.051,321.948 158.175 C 328.782 149.487,321.051 111.021,305.994 78.800 C 292.308 49.513,273.002 26.580,266.102 31.414 M271.800 33.962 C 295.501 47.638,328.295 125.889,321.835 153.350 C 320.674 158.283,320.643 158.291,308.600 156.870 C 273.928 152.777,239.179 153.544,212.445 158.990 C 206.564 160.189,205.912 160.216,205.116 159.300 C 204.133 158.169,197.162 141.743,187.581 117.979 C 184.724 110.894,184.687 111.108,189.343 107.943 C 213.070 91.815,238.575 67.710,260.421 40.767 C 267.816 31.647,267.803 31.655,271.800 33.962 M178.800 184.355 C 168.383 188.108,163.219 191.039,163.206 193.207 C 163.199 194.384,188.209 241.235,189.762 242.952 C 191.232 244.579,191.293 244.561,208.400 237.406 C 225.189 230.384,225.855 230.044,226.678 228.074 C 228.520 223.667,225.101 220.711,219.510 221.877 C 208.340 224.207,205.770 221.935,194.828 200.056 C 185.102 180.608,186.203 181.687,178.800 184.355 M193.043 201.400 C 202.065 219.348,202.898 220.565,207.710 222.817 C 211.716 224.691,214.512 225.034,218.959 224.197 C 223.134 223.412,224.197 223.652,224.657 225.484 C 225.118 227.323,224.088 228.450,220.590 229.927 C 201.293 238.077,192.516 241.616,191.844 241.518 C 190.991 241.393,190.191 239.969,173.748 209.294 C 169.236 200.876,165.601 193.676,165.672 193.294 C 165.940 191.840,181.193 185.125,183.800 185.313 C 184.962 185.397,185.255 185.908,193.043 201.400 M22.561 363.200 C 22.561 366.610,22.622 368.005,22.697 366.300 C 22.772 364.595,22.772 361.805,22.697 360.100 C 22.622 358.395,22.561 359.790,22.561 363.200 " stroke="none" fill="#8494a9" fill-rule="evenodd"></path><path id="path7" d="M39.867 170.667 C 38.798 171.736,35.896 169.561,75.000 196.995 C 80.060 200.545,86.360 204.984,89.000 206.859 C 91.640 208.735,98.120 213.301,103.400 217.006 C 117.020 226.562,126.529 233.246,133.000 237.809 C 136.080 239.981,141.570 243.845,145.200 246.395 C 148.830 248.945,156.075 254.039,161.300 257.716 C 193.194 280.157,191.626 279.160,196.339 279.998 C 202.496 281.093,206.297 279.571,217.880 271.371 C 228.184 264.076,243.067 253.591,253.852 246.029 C 257.123 243.735,261.870 240.394,264.400 238.606 C 266.930 236.817,271.700 233.455,275.000 231.135 C 296.566 215.975,303.781 210.901,309.855 206.626 C 317.475 201.261,322.522 197.712,340.404 185.142 C 363.305 169.044,362.924 170.415,344.498 170.406 L 331.596 170.400 328.374 172.087 C 324.248 174.247,320.995 174.448,309.400 173.258 C 277.031 169.937,247.567 169.997,225.200 173.432 C 208.049 176.065,201.923 177.551,201.399 179.204 C 201.149 179.992,212.843 203.619,214.319 205.307 C 214.870 205.938,215.440 205.986,219.570 205.753 C 236.451 204.799,246.765 220.018,239.095 234.563 C 235.840 240.735,233.510 241.975,197.800 256.556 C 190.405 259.575,184.138 258.687,179.600 253.977 C 177.782 252.089,176.992 250.730,168.704 235.200 C 156.526 212.384,148.808 198.002,148.339 197.251 C 147.748 196.305,146.816 195.894,143.306 195.032 C 135.590 193.137,131.840 189.154,127.588 178.336 C 126.234 174.890,124.776 171.695,124.347 171.236 L 123.569 170.400 81.851 170.400 C 58.906 170.400,40.013 170.520,39.867 170.667 M123.543 171.900 C 124.001 172.286,125.442 175.342,126.751 178.704 C 131.146 189.988,134.836 193.810,143.472 196.018 C 147.572 197.067,145.998 194.640,162.005 224.600 C 179.058 256.518,178.459 255.589,183.498 257.896 C 189.512 260.650,191.392 260.240,211.768 251.735 C 234.610 242.200,235.647 241.625,238.945 236.657 C 248.756 221.875,236.648 202.261,219.252 204.757 C 216.235 205.189,215.829 205.169,215.146 204.551 C 214.233 203.725,202.400 180.767,202.400 179.822 C 202.400 178.828,204.356 178.184,212.041 176.647 C 229.878 173.079,243.817 171.840,266.000 171.851 C 283.650 171.859,295.043 172.522,313.734 174.629 C 321.285 175.480,324.768 175.064,329.121 172.793 L 332.261 171.154 343.911 171.277 C 352.086 171.363,355.700 171.539,356.026 171.865 C 356.770 172.610,366.888 165.370,260.801 240.006 C 232.531 259.895,208.633 276.597,207.694 277.122 C 202.185 280.201,194.623 279.797,189.200 276.134 C 187.990 275.317,176.470 267.244,163.600 258.194 C 150.730 249.144,118.240 226.298,91.400 207.425 C 36.687 168.953,41.815 172.658,42.134 171.827 C 42.526 170.806,122.329 170.878,123.543 171.900 M23.687 181.100 C 23.529 181.485,23.400 224.550,23.400 276.800 C 23.400 381.633,23.184 372.761,25.794 375.200 L 26.864 376.200 199.649 376.301 C 355.154 376.393,372.554 376.341,373.635 375.782 C 374.295 375.441,375.187 374.585,375.616 373.881 C 376.619 372.237,376.878 181.695,375.879 180.866 C 375.134 180.247,374.549 180.603,363.102 188.662 C 357.546 192.573,350.210 197.679,346.800 200.009 C 343.390 202.339,329.980 211.691,317.000 220.792 C 267.494 255.503,238.463 275.846,234.800 278.391 C 232.710 279.844,227.990 283.155,224.310 285.749 C 210.779 295.290,204.143 297.616,194.980 296.029 C 187.644 294.758,185.256 293.463,168.748 281.800 C 161.898 276.960,154.742 271.905,152.846 270.567 C 150.951 269.228,147.150 266.540,144.400 264.593 C 141.650 262.646,137.960 260.038,136.200 258.797 C 134.440 257.557,130.750 254.949,128.000 253.001 C 125.250 251.054,120.480 247.680,117.400 245.504 C 114.320 243.328,109.010 239.569,105.600 237.151 C 102.190 234.733,98.050 231.808,96.400 230.649 C 94.750 229.491,87.550 224.401,80.400 219.339 C 60.431 205.199,41.366 191.708,37.600 189.052 C 24.164 179.575,24.285 179.644,23.687 181.100 M78.710 219.272 C 107.690 239.772,133.470 258.005,136.000 259.789 C 138.530 261.573,149.780 269.525,161.000 277.460 C 172.220 285.395,182.390 292.442,183.600 293.121 C 192.511 298.120,203.590 298.536,212.702 294.214 C 216.435 292.444,214.103 294.051,283.800 245.213 C 316.580 222.244,346.100 201.628,349.400 199.400 C 352.700 197.172,359.700 192.344,364.956 188.672 C 372.495 183.404,374.627 182.091,375.059 182.449 C 375.520 182.832,375.590 197.860,375.503 277.622 L 375.400 372.341 374.563 373.471 C 372.922 375.682,383.612 375.555,200.000 375.555 C 14.074 375.555,26.900 375.728,25.420 373.200 C 24.600 371.801,24.600 371.747,24.496 276.900 L 24.392 182.000 25.206 182.000 C 25.654 182.000,49.731 198.773,78.710 219.272 " stroke="none" fill="#b49c64" fill-rule="evenodd"></path><path id="path8" d="M44.800 172.787 C 44.800 173.306,45.772 174.009,70.000 191.025 C 81.550 199.137,95.590 209.004,101.200 212.951 C 106.810 216.899,116.440 223.673,122.600 228.004 C 128.760 232.336,138.480 239.174,144.200 243.201 C 190.746 275.965,191.006 276.146,192.936 276.949 C 197.270 278.755,203.029 278.482,206.960 276.285 C 208.498 275.425,221.770 266.132,276.200 227.806 C 286.540 220.525,299.410 211.471,304.800 207.687 C 343.933 180.214,353.000 173.726,353.000 173.198 C 353.000 172.686,351.513 172.585,342.614 172.493 L 332.229 172.386 328.872 174.088 C 324.763 176.172,320.637 176.485,310.945 175.451 C 291.547 173.381,285.202 173.040,266.000 173.034 C 241.785 173.027,228.241 174.279,209.400 178.264 C 202.570 179.709,202.587 178.486,209.220 191.455 C 216.303 205.303,215.075 203.947,220.318 203.701 C 235.910 202.966,246.601 215.737,242.809 230.566 C 240.717 238.744,237.113 242.209,225.600 247.110 C 190.926 261.872,189.994 262.131,183.163 258.935 C 177.291 256.187,179.501 259.781,152.087 208.400 C 146.136 197.247,146.569 197.816,143.592 197.230 C 135.038 195.547,130.088 190.478,125.597 178.800 C 124.455 175.830,123.336 173.175,123.111 172.900 C 122.594 172.268,44.800 172.156,44.800 172.787 M122.961 173.700 C 123.280 174.195,124.535 177.160,125.750 180.288 C 129.918 191.018,134.303 195.360,143.146 197.514 L 146.092 198.232 151.561 208.416 C 154.569 214.017,160.872 225.800,165.568 234.600 C 170.264 243.400,174.906 251.815,175.884 253.300 C 180.463 260.256,189.195 262.664,197.600 259.288 C 231.476 245.684,237.302 242.663,240.640 236.967 C 249.963 221.059,239.229 202.811,220.808 203.252 C 218.182 203.315,215.953 203.284,215.855 203.183 C 215.109 202.417,204.368 180.661,204.528 180.243 C 204.642 179.947,205.154 179.612,205.667 179.498 C 214.705 177.486,225.437 175.708,233.800 174.837 C 246.347 173.529,248.637 173.428,265.800 173.427 C 284.834 173.425,291.620 173.791,310.945 175.861 C 320.657 176.901,325.229 176.552,329.211 174.467 L 332.422 172.786 342.212 172.893 C 348.341 172.960,352.026 173.150,352.069 173.400 C 352.145 173.840,350.302 175.150,282.000 223.199 C 221.077 266.057,217.982 268.233,211.915 272.486 C 201.202 279.995,197.145 279.811,184.917 271.256 C 177.282 265.914,164.366 256.843,148.600 245.749 C 142.660 241.570,131.995 234.067,124.900 229.075 C 117.805 224.084,106.195 215.915,99.100 210.922 C 92.005 205.929,80.530 197.857,73.600 192.983 C 66.670 188.109,57.680 181.786,53.623 178.930 C 49.566 176.075,46.176 173.527,46.090 173.269 C 45.971 172.912,55.088 172.800,84.157 172.800 L 122.382 172.800 122.961 173.700 M25.600 269.026 C 25.600 327.148,25.732 354.700,26.014 355.226 C 26.487 356.111,146.540 356.440,159.400 355.592 C 225.591 351.228,282.843 318.464,320.945 263.145 C 322.405 261.024,323.600 259.192,323.600 259.073 C 323.600 258.954,324.288 257.809,325.129 256.528 C 326.548 254.367,330.356 247.733,333.699 241.600 C 336.327 236.777,342.253 223.040,344.588 216.358 C 346.793 210.045,348.856 202.696,348.518 202.358 C 347.782 201.622,353.296 197.835,266.600 258.612 C 216.246 293.911,217.217 293.248,213.109 295.206 C 203.961 299.567,193.654 299.368,184.289 294.649 C 182.274 293.634,162.168 279.671,132.400 258.614 C 105.670 239.706,70.877 215.093,55.082 203.918 C 39.288 192.743,26.193 183.600,25.982 183.600 C 25.740 183.600,25.600 214.969,25.600 269.026 M27.569 184.956 C 27.916 185.262,31.890 188.106,36.400 191.276 C 44.752 197.147,54.983 204.377,84.200 225.056 C 93.220 231.440,107.440 241.498,115.800 247.406 C 124.160 253.315,134.420 260.570,138.600 263.530 C 183.483 295.305,183.408 295.255,189.200 297.128 C 197.249 299.731,205.826 299.203,213.450 295.635 C 216.677 294.125,217.198 293.772,245.228 274.123 C 350.702 200.184,346.791 202.893,346.086 204.234 C 345.865 204.655,345.283 206.440,344.794 208.200 C 344.304 209.960,343.755 211.760,343.575 212.200 C 343.394 212.640,343.122 213.629,342.970 214.398 C 342.818 215.168,342.456 216.338,342.167 216.998 C 341.877 217.659,340.802 220.360,339.778 223.000 C 338.753 225.640,337.754 227.971,337.557 228.180 C 337.361 228.389,337.200 228.884,337.200 229.280 C 337.200 229.676,337.040 230.000,336.843 230.000 C 336.647 230.000,336.363 230.491,336.213 231.091 C 335.898 232.347,331.978 240.481,330.324 243.311 C 329.710 244.363,328.392 246.756,327.395 248.630 C 325.366 252.445,324.740 253.566,324.295 254.180 C 324.127 254.411,322.873 256.310,321.508 258.400 C 320.143 260.490,318.705 262.549,318.313 262.975 C 317.921 263.402,317.600 263.987,317.600 264.275 C 317.600 264.564,317.459 264.800,317.286 264.800 C 317.114 264.800,316.679 265.295,316.321 265.900 C 315.963 266.505,315.204 267.540,314.635 268.200 C 314.066 268.860,313.601 269.559,313.600 269.753 C 313.600 269.947,313.276 270.397,312.881 270.753 C 312.486 271.109,311.727 272.030,311.194 272.800 C 310.662 273.570,310.040 274.409,309.813 274.665 C 309.586 274.921,309.001 275.654,308.513 276.292 C 308.025 276.931,307.122 277.982,306.506 278.627 C 305.889 279.272,305.073 280.250,304.691 280.800 C 302.940 283.322,290.094 296.659,286.800 299.374 C 286.030 300.009,284.403 301.445,283.184 302.564 C 279.322 306.112,268.611 314.277,262.400 318.408 C 260.310 319.798,258.540 321.085,258.467 321.268 C 258.393 321.450,258.112 321.600,257.842 321.600 C 257.572 321.600,257.002 321.921,256.575 322.313 C 256.149 322.705,255.133 323.340,254.319 323.723 C 253.504 324.106,252.604 324.640,252.319 324.910 C 252.033 325.179,250.540 326.043,249.000 326.830 C 247.460 327.616,242.615 330.091,238.233 332.330 C 233.852 334.568,230.101 336.400,229.899 336.400 C 229.697 336.400,228.422 336.925,227.066 337.567 C 223.482 339.262,222.043 339.862,219.800 340.598 C 218.700 340.959,217.260 341.495,216.600 341.789 C 215.940 342.083,214.590 342.536,213.600 342.794 C 209.597 343.838,208.583 344.154,208.220 344.470 C 208.011 344.651,207.514 344.800,207.115 344.800 C 206.716 344.800,206.077 344.962,205.695 345.161 C 205.046 345.498,203.980 345.805,200.000 346.800 C 195.831 347.842,194.917 348.078,193.800 348.400 C 192.251 348.847,185.398 350.208,181.800 350.784 C 180.260 351.030,178.010 351.392,176.800 351.587 C 174.633 351.937,170.070 352.473,163.000 353.210 C 157.233 353.811,72.304 354.548,47.900 354.209 L 26.000 353.905 26.000 269.152 C 26.000 204.656,26.112 184.400,26.469 184.400 C 26.726 184.400,27.221 184.650,27.569 184.956 " stroke="none" fill="#f2c45c" fill-rule="evenodd"></path></g></svg>