<svg id="svg" version="1.1" xmlns="http://www.w3.org/2000/svg" xmlns:xlink="http://www.w3.org/1999/xlink" width="400" height="400" viewBox="0, 0, 400,400"><g id="svgg"><path id="path0" d="M200.000 62.600 L 200.000 100.400 270.976 100.400 C 317.863 100.400,342.037 100.264,342.200 100.000 C 342.336 99.780,342.797 99.600,343.224 99.600 C 343.651 99.600,344.000 99.420,344.000 99.200 C 344.000 98.980,344.242 98.800,344.539 98.800 C 344.835 98.800,345.273 98.395,345.512 97.900 C 345.751 97.405,345.958 97.231,345.973 97.513 C 346.018 98.366,348.800 95.292,348.800 94.390 C 348.800 93.929,348.980 93.664,349.200 93.800 C 349.420 93.936,349.600 93.677,349.600 93.224 C 349.600 92.771,349.780 92.400,350.000 92.400 C 350.220 92.400,350.400 92.040,350.400 91.600 C 350.400 91.160,350.580 90.800,350.800 90.800 C 351.020 90.800,351.200 90.530,351.200 90.200 C 351.200 89.870,351.380 89.600,351.600 89.600 C 351.820 89.600,352.000 89.240,352.000 88.800 C 352.000 88.360,352.180 88.000,352.400 88.000 C 352.620 88.000,352.799 87.775,352.797 87.500 C 352.793 86.867,356.088 80.246,356.496 80.067 C 356.663 79.993,356.800 79.588,356.800 79.167 C 356.800 78.745,356.980 78.400,357.200 78.400 C 357.420 78.400,357.600 78.040,357.600 77.600 C 357.600 77.160,357.760 76.800,357.955 76.800 C 358.151 76.800,358.429 76.170,358.574 75.400 C 358.718 74.630,359.008 74.000,359.218 74.000 C 359.428 74.000,359.600 73.640,359.600 73.200 C 359.600 72.760,359.780 72.400,360.000 72.400 C 360.220 72.400,360.400 72.040,360.400 71.600 C 360.400 71.160,360.580 70.800,360.800 70.800 C 361.020 70.800,361.200 70.440,361.200 70.000 C 361.200 69.560,361.380 69.200,361.600 69.200 C 361.820 69.200,362.000 68.840,362.000 68.400 C 362.000 67.960,362.180 67.600,362.400 67.600 C 362.620 67.600,362.800 67.240,362.800 66.800 C 362.800 66.360,362.980 66.000,363.200 66.000 C 363.420 66.000,363.600 65.640,363.600 65.200 C 363.600 64.760,363.780 64.400,364.000 64.400 C 364.220 64.400,364.400 63.939,364.400 63.376 C 364.400 62.796,364.573 62.460,364.800 62.600 C 365.020 62.736,365.200 62.477,365.200 62.024 C 365.200 61.571,365.380 61.200,365.600 61.200 C 365.820 61.200,366.000 60.840,366.000 60.400 C 366.000 59.960,366.180 59.600,366.400 59.600 C 366.620 59.600,366.800 59.240,366.800 58.800 C 366.800 58.360,366.980 58.000,367.200 58.000 C 367.420 58.000,367.600 57.730,367.600 57.400 C 367.600 57.070,367.780 56.800,368.000 56.800 C 368.220 56.800,368.400 56.440,368.400 56.000 C 368.400 55.560,368.580 55.200,368.800 55.200 C 369.020 55.200,369.200 54.966,369.200 54.680 C 369.200 53.944,370.141 52.007,370.500 52.003 C 370.665 52.001,370.800 51.747,370.800 51.438 C 370.800 50.772,372.468 47.459,372.900 47.267 C 373.065 47.193,373.200 46.788,373.200 46.367 C 373.200 45.945,373.380 45.600,373.600 45.600 C 373.820 45.600,374.000 45.240,374.000 44.800 C 374.000 44.360,374.199 44.000,374.443 44.000 C 374.686 44.000,374.784 43.736,374.660 43.413 C 374.536 43.090,374.607 42.719,374.817 42.589 C 376.404 41.609,374.726 29.607,372.905 28.908 C 372.627 28.802,372.396 28.509,372.392 28.257 C 372.383 27.749,368.507 25.342,367.952 25.500 C 367.758 25.555,367.600 25.420,367.600 25.200 C 367.600 24.935,339.400 24.800,283.800 24.800 L 200.000 24.800 200.000 62.600 M30.177 26.167 C 29.750 26.479,29.507 26.840,29.636 26.970 C 29.766 27.099,30.198 26.844,30.598 26.402 C 31.448 25.463,31.273 25.366,30.177 26.167 M26.272 29.985 C 25.878 30.653,25.745 31.200,25.977 31.200 C 26.210 31.200,26.400 30.945,26.400 30.633 C 26.400 30.322,26.607 29.998,26.860 29.913 C 27.113 29.829,27.246 29.537,27.155 29.265 C 27.062 28.986,26.677 29.300,26.272 29.985 M51.465 95.068 C 51.346 95.187,51.698 95.735,52.248 96.285 C 53.545 97.581,53.806 97.319,52.607 95.926 C 52.098 95.335,51.585 94.949,51.465 95.068 " stroke="none" fill="#54a4d4" fill-rule="evenodd"></path><path id="path1" d="M200.098 237.300 L 200.200 275.000 240.367 275.000 C 272.145 275.000,280.568 274.896,280.700 274.500 C 280.792 274.225,281.126 274.000,281.444 274.000 C 282.898 274.000,287.200 268.309,287.200 266.386 C 287.200 265.980,287.380 265.536,287.600 265.400 C 287.820 265.264,288.000 264.634,288.000 264.000 C 288.000 263.366,288.180 262.736,288.400 262.600 C 288.620 262.464,288.800 261.733,288.800 260.976 C 288.800 260.219,288.980 259.600,289.200 259.600 C 289.420 259.600,289.600 258.981,289.600 258.224 C 289.600 257.467,289.780 256.736,290.000 256.600 C 290.220 256.464,290.400 255.859,290.400 255.256 C 290.400 254.653,290.579 253.981,290.798 253.762 C 291.017 253.543,291.314 251.977,291.457 250.282 C 291.600 248.587,291.871 247.200,292.059 247.200 C 292.246 247.200,292.400 246.851,292.400 246.424 C 292.400 245.997,292.580 245.536,292.800 245.400 C 293.020 245.264,293.200 244.533,293.200 243.776 C 293.200 243.019,293.380 242.400,293.600 242.400 C 293.820 242.400,294.000 241.770,294.000 241.000 C 294.000 240.230,294.180 239.600,294.400 239.600 C 294.620 239.600,294.800 238.880,294.800 238.000 C 294.800 237.120,294.980 236.400,295.200 236.400 C 295.420 236.400,295.600 235.860,295.600 235.200 C 295.600 234.540,295.780 234.000,296.000 234.000 C 296.220 234.000,296.400 233.280,296.400 232.400 C 296.400 231.520,296.580 230.800,296.800 230.800 C 297.020 230.800,297.200 230.080,297.200 229.200 C 297.200 228.320,297.380 227.600,297.600 227.600 C 297.820 227.600,298.000 227.060,298.000 226.400 C 298.000 225.740,298.180 225.200,298.400 225.200 C 298.620 225.200,298.800 224.570,298.800 223.800 C 298.800 223.030,298.980 222.400,299.200 222.400 C 299.420 222.400,299.600 221.680,299.600 220.800 C 299.600 219.920,299.780 219.200,300.000 219.200 C 300.220 219.200,300.400 218.581,300.400 217.824 C 300.400 217.067,300.580 216.336,300.800 216.200 C 301.020 216.064,301.200 214.624,301.200 213.000 C 301.200 211.376,301.020 209.936,300.800 209.800 C 300.580 209.664,300.400 209.113,300.400 208.576 C 300.400 208.039,300.220 207.600,300.000 207.600 C 299.780 207.600,299.600 207.240,299.600 206.800 C 299.600 206.360,299.420 206.000,299.200 206.000 C 298.980 206.000,298.800 205.725,298.800 205.389 C 298.800 204.596,295.404 201.200,294.611 201.200 C 294.275 201.200,294.000 201.020,294.000 200.800 C 294.000 200.580,293.415 200.397,292.700 200.394 C 291.714 200.389,291.545 200.294,292.000 200.000 C 292.389 199.748,276.339 199.610,246.298 199.606 L 199.996 199.600 200.098 237.300 M110.406 258.700 C 110.403 259.195,110.580 259.600,110.800 259.600 C 111.301 259.600,111.301 259.176,110.800 258.400 C 110.486 257.915,110.411 257.972,110.406 258.700 " stroke="none" fill="#44a444" fill-rule="evenodd"></path><path id="path2" d="M33.200 25.243 C 33.200 25.486,32.935 25.584,32.611 25.460 C 32.287 25.335,31.477 25.692,30.811 26.252 C 30.145 26.813,29.600 27.164,29.600 27.032 C 29.600 26.901,29.060 27.275,28.400 27.863 C 27.740 28.451,27.200 29.172,27.200 29.466 C 27.200 29.760,27.020 30.000,26.800 30.000 C 26.580 30.000,26.400 30.193,26.400 30.429 C 26.400 30.664,26.138 31.119,25.817 31.440 C 25.496 31.761,25.336 32.288,25.460 32.612 C 25.584 32.935,25.486 33.200,25.243 33.200 C 24.275 33.200,24.700 40.957,25.800 43.363 C 26.350 44.565,26.800 45.830,26.800 46.174 C 26.800 46.518,26.959 46.800,27.153 46.800 C 27.348 46.800,27.607 47.115,27.729 47.500 C 27.851 47.885,28.207 48.650,28.521 49.200 C 28.835 49.750,29.626 51.280,30.279 52.600 C 31.575 55.218,31.942 55.942,32.965 57.900 C 33.339 58.615,33.500 59.203,33.323 59.206 C 33.145 59.209,33.193 59.344,33.430 59.506 C 33.899 59.827,35.225 62.240,36.065 64.300 C 36.357 65.015,36.731 65.600,36.898 65.600 C 37.064 65.600,37.200 65.960,37.200 66.400 C 37.200 66.840,37.335 67.201,37.500 67.203 C 37.851 67.207,38.800 69.137,38.800 69.846 C 38.800 70.114,38.941 70.393,39.114 70.467 C 39.286 70.540,40.109 72.040,40.942 73.800 C 41.775 75.560,42.624 77.313,42.828 77.695 C 43.033 78.077,43.200 78.642,43.200 78.952 C 43.200 79.261,43.496 79.628,43.857 79.767 C 44.219 79.905,44.404 80.129,44.269 80.264 C 44.134 80.399,44.378 81.008,44.812 81.617 C 45.245 82.225,45.600 82.851,45.600 83.006 C 45.600 83.162,46.571 85.239,47.757 87.621 C 48.944 90.003,49.814 92.053,49.691 92.176 C 49.568 92.299,49.677 92.400,49.933 92.400 C 50.190 92.400,50.400 92.670,50.400 93.000 C 50.400 93.330,50.580 93.600,50.800 93.600 C 51.020 93.600,51.200 93.870,51.200 94.200 C 51.200 94.530,51.335 94.804,51.500 94.809 C 51.665 94.815,52.330 95.535,52.977 96.409 C 53.624 97.284,54.389 98.000,54.677 98.000 C 54.965 98.000,55.200 98.158,55.200 98.351 C 55.200 98.545,55.785 98.920,56.500 99.185 C 57.215 99.450,58.113 99.832,58.495 100.033 C 58.908 100.252,87.701 100.400,129.595 100.400 L 200.000 100.400 200.000 62.600 L 200.000 24.800 116.600 24.800 C 55.893 24.800,33.200 24.920,33.200 25.243 " stroke="none" fill="#74b4e4" fill-rule="evenodd"></path><path id="path3" d="M107.800 200.000 C 107.664 200.220,107.203 200.400,106.776 200.400 C 106.349 200.400,106.000 200.580,106.000 200.800 C 106.000 201.020,105.759 201.200,105.464 201.200 C 104.806 201.200,101.200 204.550,101.200 205.160 C 101.200 205.402,101.065 205.601,100.900 205.603 C 100.499 205.607,99.600 207.581,99.600 208.456 C 99.600 208.839,99.420 209.264,99.200 209.400 C 98.980 209.536,98.800 210.976,98.800 212.600 C 98.800 214.224,98.980 215.664,99.200 215.800 C 99.420 215.936,99.600 216.566,99.600 217.200 C 99.600 217.834,99.780 218.464,100.000 218.600 C 100.220 218.736,100.400 219.467,100.400 220.224 C 100.400 220.981,100.580 221.600,100.800 221.600 C 101.020 221.600,101.200 222.230,101.200 223.000 C 101.200 223.770,101.380 224.400,101.600 224.400 C 101.820 224.400,102.000 225.019,102.000 225.776 C 102.000 226.533,102.180 227.264,102.400 227.400 C 102.620 227.536,102.800 228.166,102.800 228.800 C 102.800 229.434,102.980 230.064,103.200 230.200 C 103.420 230.336,103.600 231.067,103.600 231.824 C 103.600 232.581,103.780 233.200,104.000 233.200 C 104.220 233.200,104.400 233.830,104.400 234.600 C 104.400 235.370,104.580 236.000,104.800 236.000 C 105.020 236.000,105.200 236.619,105.200 237.376 C 105.200 238.133,105.380 238.864,105.600 239.000 C 105.820 239.136,106.000 239.777,106.000 240.424 C 106.000 241.071,106.180 241.600,106.400 241.600 C 106.620 241.600,106.800 242.320,106.800 243.200 C 106.800 244.080,106.980 244.800,107.200 244.800 C 107.420 244.800,107.600 245.430,107.600 246.200 C 107.600 246.970,107.780 247.600,108.000 247.600 C 108.220 247.600,108.400 248.219,108.400 248.976 C 108.400 249.733,108.596 250.474,108.835 250.622 C 109.074 250.769,109.188 251.204,109.087 251.588 C 108.987 251.972,109.096 252.627,109.329 253.043 C 109.563 253.459,109.764 254.250,109.777 254.800 C 109.790 255.350,109.903 255.980,110.029 256.200 C 110.155 256.420,110.485 257.410,110.762 258.400 C 111.039 259.390,111.448 260.839,111.670 261.619 C 111.893 262.399,112.103 263.524,112.137 264.119 C 112.172 264.713,112.335 265.200,112.500 265.200 C 112.665 265.200,112.800 265.650,112.800 266.200 C 112.800 266.750,112.980 267.200,113.200 267.200 C 113.420 267.200,113.600 267.487,113.600 267.838 C 113.600 269.222,116.977 272.989,119.111 273.985 C 119.710 274.264,120.513 274.652,120.895 274.847 C 121.724 275.269,134.612 275.291,172.100 274.934 L 200.000 274.669 200.000 237.134 L 200.000 199.600 154.024 199.600 C 123.804 199.600,107.962 199.737,107.800 200.000 " stroke="none" fill="#63bb6b" fill-rule="evenodd"></path><path id="path4" d="M200.000 150.000 L 200.000 188.000 255.224 188.000 C 291.937 188.000,310.364 187.866,310.200 187.600 C 310.060 187.373,310.396 187.200,310.976 187.200 C 311.539 187.200,312.000 187.020,312.000 186.800 C 312.000 186.580,312.274 186.400,312.609 186.400 C 313.419 186.400,317.362 182.395,317.540 181.391 C 317.617 180.956,317.865 180.485,318.091 180.345 C 318.317 180.204,318.388 179.904,318.248 179.677 C 318.107 179.450,318.264 178.993,318.596 178.661 C 318.928 178.329,319.200 177.862,319.200 177.623 C 319.200 177.384,319.380 176.832,319.600 176.395 C 319.820 175.958,320.180 175.242,320.400 174.805 C 320.620 174.368,320.800 173.648,320.800 173.205 C 320.800 172.762,320.980 172.400,321.200 172.400 C 321.420 172.400,321.600 172.051,321.600 171.624 C 321.600 171.197,321.780 170.736,322.000 170.600 C 322.220 170.464,322.400 169.913,322.400 169.376 C 322.400 168.839,322.541 168.400,322.713 168.400 C 322.885 168.400,323.271 167.545,323.571 166.500 C 323.871 165.455,324.250 164.420,324.413 164.200 C 324.576 163.980,324.836 163.035,324.990 162.100 C 325.144 161.165,325.434 160.400,325.635 160.400 C 325.836 160.400,326.000 159.950,326.000 159.400 C 326.000 158.850,326.180 158.400,326.400 158.400 C 326.620 158.400,326.800 157.950,326.800 157.400 C 326.800 156.850,326.980 156.400,327.200 156.400 C 327.420 156.400,327.600 155.950,327.600 155.400 C 327.600 154.850,327.780 154.400,328.000 154.400 C 328.220 154.400,328.400 153.860,328.400 153.200 C 328.400 152.540,328.580 152.000,328.800 152.000 C 329.020 152.000,329.200 151.640,329.200 151.200 C 329.200 150.760,329.380 150.400,329.600 150.400 C 329.820 150.400,330.000 149.860,330.000 149.200 C 330.000 148.540,330.180 148.000,330.400 148.000 C 330.620 148.000,330.800 147.640,330.800 147.200 C 330.800 146.760,330.980 146.400,331.200 146.400 C 331.420 146.400,331.600 145.860,331.600 145.200 C 331.600 144.540,331.780 144.000,332.000 144.000 C 332.220 144.000,332.400 143.460,332.400 142.800 C 332.400 142.140,332.535 141.599,332.700 141.597 C 333.040 141.593,334.000 139.672,334.000 138.995 C 334.000 138.751,334.360 137.805,334.800 136.894 C 335.240 135.984,335.600 134.960,335.600 134.619 C 335.600 134.279,335.780 134.000,336.000 134.000 C 336.220 134.000,336.400 133.460,336.400 132.800 C 336.400 132.140,336.580 131.600,336.800 131.600 C 337.020 131.600,337.200 131.251,337.200 130.824 C 337.200 130.397,337.380 129.936,337.600 129.800 C 337.831 129.658,338.000 127.529,338.000 124.776 C 338.000 121.859,337.844 120.000,337.600 120.000 C 337.380 120.000,337.200 119.640,337.200 119.200 C 337.200 118.760,337.020 118.400,336.800 118.400 C 336.580 118.400,336.400 118.125,336.400 117.789 C 336.400 116.996,333.004 113.600,332.211 113.600 C 331.875 113.600,331.600 113.420,331.600 113.200 C 331.600 112.980,331.240 112.800,330.800 112.800 C 330.360 112.800,330.000 112.620,330.000 112.400 C 330.000 112.135,308.067 112.000,265.000 112.000 L 200.000 112.000 200.000 150.000 M65.432 115.432 C 64.424 116.439,63.602 117.474,63.604 117.732 C 63.607 117.989,64.064 117.622,64.621 116.916 C 65.177 116.210,66.210 115.177,66.916 114.621 C 67.622 114.064,67.989 113.607,67.732 113.604 C 67.474 113.602,66.439 114.424,65.432 115.432 " stroke="none" fill="#fccc2c" fill-rule="evenodd"></path><path id="path5" d="M162.500 275.065 C 162.115 275.220,162.000 278.074,162.000 287.433 L 162.000 299.600 153.624 299.600 C 148.471 299.600,145.152 299.754,145.000 300.000 C 144.864 300.220,144.403 300.400,143.976 300.400 C 143.549 300.400,143.200 300.580,143.200 300.800 C 143.200 301.020,143.015 301.200,142.789 301.200 C 142.143 301.200,138.800 304.711,138.800 305.389 C 138.800 305.725,138.620 306.000,138.400 306.000 C 138.180 306.000,138.000 306.360,138.000 306.800 C 138.000 307.240,137.820 307.600,137.600 307.600 C 137.380 307.600,137.200 308.320,137.200 309.200 C 137.200 310.080,137.020 310.800,136.800 310.800 C 136.580 310.800,136.400 311.509,136.400 312.376 C 136.400 313.243,136.580 314.064,136.800 314.200 C 137.020 314.336,137.200 315.157,137.200 316.024 C 137.200 316.891,137.380 317.600,137.600 317.600 C 137.820 317.600,138.000 317.960,138.000 318.400 C 138.000 318.840,138.180 319.200,138.400 319.200 C 138.620 319.200,138.800 319.474,138.800 319.809 C 138.800 320.715,191.939 373.690,193.674 374.513 C 195.748 375.498,204.253 375.497,206.327 374.513 C 208.070 373.686,261.200 320.724,261.200 319.814 C 261.200 319.476,261.380 319.200,261.600 319.200 C 261.820 319.200,262.000 318.840,262.000 318.400 C 262.000 317.960,262.180 317.600,262.400 317.600 C 262.645 317.600,262.800 315.667,262.800 312.600 C 262.800 309.533,262.645 307.600,262.400 307.600 C 262.180 307.600,262.000 307.240,262.000 306.800 C 262.000 306.360,261.820 306.000,261.600 306.000 C 261.380 306.000,261.200 305.716,261.200 305.369 C 261.200 304.418,256.848 300.400,255.819 300.400 C 255.505 300.400,255.136 300.220,255.000 300.000 C 254.848 299.754,251.529 299.600,246.376 299.600 L 238.000 299.600 238.000 287.466 L 238.000 275.331 209.734 275.066 C 177.977 274.767,163.238 274.767,162.500 275.065 " stroke="none" fill="#db332f" fill-rule="evenodd"></path><path id="path6" d="M70.507 112.566 C 64.345 114.807,60.130 123.253,62.365 128.881 C 62.566 129.387,63.126 130.880,63.611 132.200 C 64.095 133.520,64.831 135.363,65.246 136.296 C 65.661 137.228,66.000 138.353,66.000 138.796 C 66.000 139.238,66.180 139.600,66.400 139.600 C 66.620 139.600,66.800 140.050,66.800 140.600 C 66.800 141.150,66.980 141.600,67.200 141.600 C 67.420 141.600,67.600 142.050,67.600 142.600 C 67.600 143.150,67.780 143.600,68.000 143.600 C 68.220 143.600,68.400 144.050,68.400 144.600 C 68.400 145.150,68.580 145.600,68.800 145.600 C 69.020 145.600,69.200 146.140,69.200 146.800 C 69.200 147.460,69.380 148.000,69.600 148.000 C 69.820 148.000,70.000 148.360,70.000 148.800 C 70.000 149.240,70.180 149.600,70.400 149.600 C 70.620 149.600,70.800 149.962,70.800 150.405 C 70.800 150.848,70.980 151.568,71.200 152.005 C 71.420 152.442,71.780 153.158,72.000 153.595 C 72.220 154.032,72.400 154.752,72.400 155.195 C 72.400 155.638,72.580 156.000,72.800 156.000 C 73.020 156.000,73.200 156.450,73.200 157.000 C 73.200 157.550,73.380 158.000,73.600 158.000 C 73.820 158.000,74.000 158.360,74.000 158.800 C 74.000 159.240,74.180 159.600,74.400 159.600 C 74.620 159.600,74.800 159.999,74.800 160.487 C 74.800 161.431,75.691 164.170,77.146 167.700 C 77.396 168.305,77.756 169.205,77.946 169.700 C 78.417 170.923,78.973 172.261,79.900 174.400 C 80.329 175.390,80.926 177.055,81.227 178.100 C 81.528 179.145,81.915 180.000,82.087 180.000 C 82.259 180.000,82.400 180.278,82.400 180.617 C 82.400 181.837,86.322 185.878,88.604 187.009 C 90.167 187.784,91.322 187.802,145.100 187.904 L 200.000 188.008 200.000 150.004 L 200.000 112.000 135.900 112.048 C 87.897 112.083,71.475 112.214,70.507 112.566 " stroke="none" fill="#fcd44c" fill-rule="evenodd"></path></g></svg>