<?xml version="1.0" standalone="no"?>
<!DOCTYPE svg PUBLIC "-//W3C//DTD SVG 20010904//EN"
 "http://www.w3.org/TR/2001/REC-SVG-20010904/DTD/svg10.dtd">
<svg version="1.0" xmlns="http://www.w3.org/2000/svg"
 width="512.000000pt" height="512.000000pt" viewBox="0 0 512.000000 512.000000"
 preserveAspectRatio="xMidYMid meet">

<g transform="translate(0.000000,512.000000) scale(0.100000,-0.100000)"
fill="#000000" stroke="none">
<path d="M791 4939 c-51 -72 -91 -132 -89 -134 2 -1 24 -16 51 -34 26 -18 47
-35 47 -39 0 -4 -32 -20 -72 -37 -110 -46 -271 -157 -367 -254 -544 -546 -455
-1451 184 -1877 45 -29 111 -67 148 -85 51 -23 66 -35 63 -48 -12 -42 -26
-181 -26 -267 0 -52 -3 -94 -6 -94 -4 0 -28 15 -54 34 l-48 34 -55 -76 c-30
-43 -73 -102 -95 -132 l-40 -55 220 -159 c185 -134 226 -159 262 -163 78 -9
100 6 291 197 l180 180 -115 115 -115 115 -52 -52 -53 -52 0 70 c0 360 161
731 435 999 208 204 454 334 741 392 133 26 395 24 531 -5 300 -65 552 -206
760 -426 221 -233 351 -524 383 -854 27 -280 -44 -597 -189 -841 -209 -353
-545 -594 -949 -683 -131 -29 -413 -31 -547 -5 -283 57 -532 188 -736 387
l-87 85 -121 -104 -121 -103 31 -40 c27 -33 89 -90 244 -222 l30 -25 -402 -1
-403 0 0 -165 0 -165 1960 0 c1078 0 1960 -3 1960 -7 0 -4 -16 -23 -35 -43
l-34 -35 116 -105 c63 -58 119 -105 124 -105 17 0 341 361 360 400 23 49 23
79 1 127 -19 42 -331 410 -343 406 -14 -5 -239 -200 -239 -207 1 -3 19 -26 40
-51 l40 -45 -275 -3 c-151 -1 -399 -1 -551 0 l-276 3 48 35 c78 55 241 217
316 315 522 672 483 1623 -91 2256 -248 272 -579 459 -961 540 -90 20 -136 23
-325 23 -191 1 -235 -2 -333 -22 -552 -112 -1009 -462 -1249 -957 -26 -55 -49
-102 -50 -104 -10 -17 -166 81 -240 152 -266 251 -355 634 -227 976 83 221
288 431 498 511 l28 10 -36 -65 c-20 -36 -36 -67 -36 -69 0 -9 272 -156 279
-151 5 3 67 107 137 232 113 200 128 231 128 273 0 80 -20 100 -264 271 -124
87 -228 158 -231 159 -3 0 -47 -59 -98 -131z"/>
<path fill="#0795FE" d="M2315 2744 c-33 -8 -98 -33 -145 -56 -68 -34 -102 -59 -170 -128 -98
-97 -147 -184 -180 -314 -38 -152 -19 -314 57 -466 54 -108 179 -232 290 -287
115 -58 209 -77 342 -70 176 8 324 75 446 202 359 372 182 987 -323 1116 -90
23 -229 24 -317 3z"/>
</g>
</svg>
