<?xml version="1.0" encoding="utf-8"?>
<!-- Generator: Adobe Illustrator 25.3.1, SVG Export Plug-In . SVG Version: 6.00 Build 0)  -->
<svg version="1.1" id="Capa_1" xmlns="http://www.w3.org/2000/svg" xmlns:xlink="http://www.w3.org/1999/xlink" x="0px" y="0px"
	 viewBox="0 0 512 512" style="enable-background:new 0 0 512 512;" xml:space="preserve">
<style type="text/css">
	.st0{fill:#6703D6;}
	.st1{fill:#FFFFFF;}
</style>
<g>
	<polygon class="st0" points="127.51,254.73 127.5,459.41 138.52,453.01 138.53,452.99 153.02,444.54 179.26,429.23 303.4,357.56 	
		"/>
	<g>
		<polygon points="26.25,0 26.25,25.87 26.25,26.21 0.04,26.21 0.04,52.08 0.04,102.71 0.04,120.21 0.04,179.22 115.74,179.22 
			153.02,179.22 153.02,196.36 153.02,207.53 179.23,222.89 179.26,222.91 205.47,238.27 205.47,126.77 52.49,126.77 52.49,52.45 
			459.53,52.45 459.53,126.77 303.39,126.77 303.39,152.97 303.4,153.02 303.4,295.67 329.61,311.03 329.64,311.05 329.88,311.19 
			355.85,326.41 355.85,296.04 355.85,290.62 355.85,179.22 485.77,179.22 485.77,153.01 511.98,153.01 511.98,25.87 511.98,0 		"/>
		<polygon points="329.67,372.93 329.64,372.95 329.61,372.97 303.4,357.56 303.4,392.59 303.4,459.44 205.47,459.44 205.47,414.09 
			153.02,444.52 153.02,511.89 329.64,511.89 329.64,485.68 355.85,485.68 355.85,459.44 355.85,388.24 355.85,388.21 
			329.69,372.92 		"/>
	</g>
</g>
</svg>
